<svg height="250" width="250" xmlns="http://www.w3.org/2000/svg" viewBox="0 0 77.3 77.24">
  <path d="M38.65 77.239c21.328 0 38.65-17.271 38.65-38.611C77.3 17.287 59.978 0 38.65 0 17.289 0 0 17.287 0 38.628c0 21.34 17.289 38.611 38.65 38.611" fill="#a50034"/>
  <g fill="#fff">
    <path d="M37.095 21.676v33.887h10.773v-3.047H40.2v-30.84zM26.308 30.922a4.632 4.632 0 0 0 4.629-4.629c0-2.547-2.066-4.639-4.629-4.639s-4.629 2.092-4.629 4.639 2.066 4.629 4.629 4.629"/>
    <path d="M40.199 6.304a41.776 41.776 0 0 0-1.539-.045c-17.84 0-32.359 14.524-32.359 32.353 0 8.66 3.365 16.777 9.46 22.881 6.12 6.09 14.241 9.455 22.899 9.455 8.625 0 16.744-3.365 22.853-9.455 6.11-6.104 9.491-14.221 9.491-22.881v-1.439H47.898v2.978h20.024c0 .065 0 .381-.014.463C66.89 55.856 54.16 67.928 38.66 67.928c-7.846 0-15.203-3.051-20.74-8.592-5.555-5.518-8.616-12.869-8.616-20.725 0-7.811 3.061-15.2 8.616-20.735 5.537-5.53 12.894-8.581 20.74-8.581.338 0 1.16 0 1.539.02z"/>
  </g>
</svg>
