<?xml version="1.0" encoding="utf-8"?>
<!-- Generator: Adobe Illustrator 19.0.0, SVG Export Plug-In . SVG Version: 6.00 Build 0)  -->
<svg version="1.1" id="layer" xmlns="http://www.w3.org/2000/svg" xmlns:xlink="http://www.w3.org/1999/xlink" x="0px" y="0px"
	 viewBox="-153 -46 652 652" style="enable-background:new -153 -46 652 652;" xml:space="preserve">
<style type="text/css">
	.st0{fill:#231F20;}
</style>
<path class="st0" d="M-33.2,228.1c24.2-0.6,29.6,23.6,25.4,46.5c-4.9,27.8-17.9,48.1-41.7,48.1c-26.4,0-28.2-26.7-24.4-48.1
	C-70.2,253.3-58.2,228.1-33.2,228.1z M-25.5,187c-51.5-1.1-95.8,36.2-103.4,87.1c-10.1,57.3,19.4,89.9,72.2,89.9
	c49.8,0,94-32.1,104.1-89.4C55.1,230.3,34.5,187.1-25.5,187L-25.5,187z"/>
<path class="st0" d="M58.8,237.3h44.1L98.6,262H99c10.2-19.1,23.7-28.2,42.8-28.2c2.1,0.1,4.1,0.4,6.1,0.7l-8.6,48.5
	c-3.3-0.7-6.6-1.2-9.9-1.4c-19.8,0-31.5,9.4-36.2,35.8l-7.4,42.2H37.2L58.8,237.3z"/>
<path class="st0" d="M204.1,328.2c-16,0-17.6-16.6-15.3-29.7c2.3-13,10.7-27.1,25.3-27.1c15.6,0,17.9,15,15.6,28
	S220,328.2,204.1,328.2z M208.8,191.5h-48.5l-29.7,168.1h43.7l3-17.3h0.7c4,11.7,13.6,20.8,33.9,20.8c40,0,60.5-29.2,66.9-65.4
	c6.4-36.2-10.7-64.1-41.9-64.1c-14.4-0.2-28.2,5.6-38.1,16L208.8,191.5z"/>
<path class="st0" d="M271,359.6l21.4-122.4H341l-21.4,122.4H271z M301.4,187.1H350l-6.1,34.6h-48.5L301.4,187.1z"/>
<path class="st0" d="M412.2,359.6c-64.1,3.5-71.3-0.9-63.8-43.2l9-50.9h-17.3l5-28.1h18l6.7-38.1h47.8l-6.7,38.1h23.4l-5,28.1H406
	l-7.8,44.4c-2,11.2-1,15.1,12.5,15.1h8L412.2,359.6z"/>
<path class="st0" d="M432,219.6c0.3-9.2,8-16.5,17.2-16.2c9.2,0.3,16.5,8,16.2,17.2c-0.3,9-7.6,16.2-16.7,16.3
	c-9.2,0.1-16.7-7.4-16.8-16.6C432,220,432,219.8,432,219.6z M448.8,240.2c11.4-0.1,20.5-9.5,20.4-20.9c-0.1-11.4-9.5-20.5-20.9-20.4
	c-11.3,0.1-20.4,9.3-20.4,20.6c0,11.4,9.2,20.6,20.5,20.6C448.5,240.2,448.6,240.2,448.8,240.2z M444.4,221.2h4.1l6.3,10.3h4.1
	l-6.8-10.7c3.4,0,6.2-2.8,6.2-6.2c0-0.1,0-0.2,0-0.3c0-4.7-2.8-6.8-8.4-6.8h-9v23.8h3.6L444.4,221.2z M444.4,218.1v-7.4h4.9
	c2.5,0,5.3,0.6,5.3,3.5s-2.7,3.8-5.8,3.8H444.4z"/>
</svg>
