<svg width="200" height="250" viewBox="0 0 200 250" xmlns="http://www.w3.org/2000/svg" fill="none">
  <!-- Outer body -->
  <rect x="10" y="10" width="180" height="230" rx="15" ry="15" fill="#E8E8E8" stroke="#888" stroke-width="2"/>
  
  <!-- Inner body shadow -->
  <rect x="12" y="12" width="176" height="226" rx="13" ry="13" fill="url(#washerbody)"/>
  
  <!-- Control panel -->
  <rect x="20" y="20" width="160" height="35" rx="6" ry="6" fill="#F5F5F5" stroke="#bbb" stroke-width="1.5"/>
  
  <!-- Power LED -->
  <circle cx="35" cy="37.5" r="6" fill="#4CAF50" opacity="0.9"/>
  <circle cx="35" cy="37.5" r="3" fill="#66BB6A"/>
  
  <!-- Control knobs -->
  <circle cx="70" cy="37.5" r="8" fill="#666" stroke="#444" stroke-width="1"/>
  <circle cx="70" cy="37.5" r="2" fill="#333"/>
  <line x1="70" y1="32.5" x2="70" y2="29.5" stroke="#333" stroke-width="2" stroke-linecap="round"/>
  
  <circle cx="105" cy="37.5" r="8" fill="#666" stroke="#444" stroke-width="1"/>
  <circle cx="105" cy="37.5" r="2" fill="#333"/>
  <line x1="105" y1="32.5" x2="105" y2="29.5" stroke="#333" stroke-width="2" stroke-linecap="round"/>
  
  <!-- Start button -->
  <circle cx="140" cy="37.5" r="10" fill="#2196F3" stroke="#1976D2" stroke-width="1"/>
  <polygon points="136,37.5 144,32.5 144,42.5" fill="white"/>
  
  <!-- Main drum window -->
  <circle cx="100" cy="150" r="65" fill="#C0C0C0" stroke="#555" stroke-width="4"/>
  <circle cx="100" cy="150" r="58" fill="url(#druminterior)" stroke="#333" stroke-width="2"/>
  
  <!-- Glass reflection -->
  <circle cx="100" cy="150" r="58" fill="none" stroke="url(#glassshine)" stroke-width="2"/>
  <ellipse cx="85" cy="135" rx="15" ry="25" fill="rgba(255,255,255,0.3)"/>
  
  <!-- Water swirl animation -->
  <g opacity="0.7">
    <path d="M65 150a35 35 0 0 1 70 0" stroke="#3498DB" stroke-width="4" fill="none" stroke-linecap="round"/>
    <path d="M75 160a25 25 0 0 1 50 0" stroke="#5DADE2" stroke-width="3" fill="none" stroke-linecap="round"/>
    <path d="M85 170a15 15 0 0 1 30 0" stroke="#85C1E9" stroke-width="2" fill="none" stroke-linecap="round"/>
  </g>
  
  <!-- Soap bubbles -->
  <circle cx="120" cy="130" r="3" fill="rgba(255,255,255,0.8)"/>
  <circle cx="80" cy="170" r="2" fill="rgba(255,255,255,0.7)"/>
  <circle cx="110" cy="175" r="2.5" fill="rgba(255,255,255,0.6)"/>
  <circle cx="90" cy="125" r="1.5" fill="rgba(255,255,255,0.9)"/>
  
  <!-- Door handle -->
  <rect x="160" y="145" width="8" height="25" rx="4" ry="4" fill="#888" stroke="#555" stroke-width="1"/>
  
  <!-- Bottom vent -->
  <rect x="30" y="220" width="140" height="8" rx="4" ry="4" fill="#999"/>
  <rect x="35" y="222" width="5" height="4" fill="#777"/>
  <rect x="45" y="222" width="5" height="4" fill="#777"/>
  <rect x="55" y="222" width="5" height="4" fill="#777"/>
  <rect x="65" y="222" width="5" height="4" fill="#777"/>
  
  <!-- Gradients -->
  <defs>
    <linearGradient id="washerbody" x1="0%" y1="0%" x2="100%" y2="100%">
      <stop offset="0%" style="stop-color:#F0F0F0"/>
      <stop offset="100%" style="stop-color:#D0D0D0"/>
    </linearGradient>
    <radialGradient id="druminterior" cx="50%" cy="30%" r="70%">
      <stop offset="0%" style="stop-color:#E8F4FD"/>
      <stop offset="50%" style="stop-color:#B3D9F2"/>
      <stop offset="100%" style="stop-color:#7FB8D3"/>
    </radialGradient>
    <linearGradient id="glassshine" x1="0%" y1="0%" x2="100%" y2="100%">
      <stop offset="0%" style="stop-color:rgba(255,255,255,0.6)"/>
      <stop offset="100%" style="stop-color:rgba(255,255,255,0.1)"/>
    </linearGradient>
  </defs>
</svg>
